<svg xmlns="http://www.w3.org/2000/svg" width="24" height="21" fill="none"><path fill="#003049" d="M21.4 2.8H18L16.4.3a.7.7 0 0 0-.6-.3H8.2a.7.7 0 0 0-.6.3L6 2.8H2.6A2.6 2.6 0 0 0 0 5.4v13c0 .7.3 1.4.8 1.8.4.5 1.1.8 1.8.8h18.8a2.6 2.6 0 0 0 2.6-2.6v-13c0-.7-.3-1.4-.8-1.8-.4-.5-1.1-.8-1.8-.8Zm1.2 15.6a1.2 1.2 0 0 1-1.2 1.2H2.6a1.2 1.2 0 0 1-1.2-1.2v-13c0-.3.1-.6.4-.9.2-.2.5-.3.8-.3h3.8a.7.7 0 0 0 .5-.3l1.7-2.5h6.8L17 3.9a.7.7 0 0 0 .5.3h3.8c.3 0 .6.1.8.3.3.3.4.6.4.9v13ZM12 6.5a5 5 0 0 0-4.6 3A4.9 4.9 0 0 0 8.5 15a5 5 0 0 0 8.4-3.5c0-1.3-.5-2.5-1.4-3.4A5 5 0 0 0 12 6.5Zm0 8.4a3.6 3.6 0 0 1-3.3-2.1A3.5 3.5 0 0 1 9.5 9a3.5 3.5 0 0 1 6 2.4A3.5 3.5 0 0 1 12 15Z"/></svg>