<svg xmlns="http://www.w3.org/2000/svg" width="14" height="14" fill="none"><g fill="#003049" clip-path="url(#a)"><path fill-rule="evenodd" d="M10.3 1.9H3.7V0h-.9v1.9H1.4A1.4 1.4 0 0 0 0 3.3v7.4a1.4 1.4 0 0 0 1.4 1.4h11.2a1.4 1.4 0 0 0 1.4-1.4V3.3a1.4 1.4 0 0 0-1.4-1.4h-1.4V0h-1v1.9ZM2.8 5.6a1.9 1.9 0 1 1 3.7 0 1.9 1.9 0 0 1-3.7 0Zm-.6 4.3a2.7 2.7 0 0 1 5 0l.2.6a.5.5 0 0 1-.4.7H2.3a.5.5 0 0 1-.4-.7l.3-.6Zm6.2-4.3h2.8v-1H8.4v1Zm0 2.8h2.8v-1H8.4v1Z" clip-rule="evenodd"/><path d="M14 13v1H0v-1h14Z"/></g><defs><clipPath id="a"><path fill="#fff" d="M0 0h14v14H0z"/></clipPath></defs></svg>