<svg xmlns="http://www.w3.org/2000/svg" width="22" height="22" fill="none"><path stroke="#000" stroke-width="1.5" d="M1 11c0-3.8 0-5.7 1.2-6.8C3.3 3 5.2 3 9 3h4c3.8 0 5.7 0 6.8 1.2C21 5.3 21 7.2 21 11v2c0 3.8 0 5.7-1.2 6.8-1.1 1.2-3 1.2-6.8 1.2H9c-3.8 0-5.7 0-6.8-1.2C1 18.7 1 16.8 1 13v-2Z"/><path stroke="#000" stroke-linecap="round" stroke-width="1.5" d="M6 3V1.5M16 3V1.5M1.5 8h19"/><path fill="#000" d="M17 16a1 1 0 1 1-2 0 1 1 0 0 1 2 0Zm0-4a1 1 0 1 1-2 0 1 1 0 0 1 2 0Zm-5 4a1 1 0 1 1-2 0 1 1 0 0 1 2 0Zm0-4a1 1 0 1 1-2 0 1 1 0 0 1 2 0Zm-5 4a1 1 0 1 1-2 0 1 1 0 0 1 2 0Zm0-4a1 1 0 1 1-2 0 1 1 0 0 1 2 0Z"/></svg>