<svg xmlns="http://www.w3.org/2000/svg" width="24" height="22" fill="none"><path fill="#EAE2B7" d="m12 20.6-.6.6a.8.8 0 0 0 1.2 0l-.6-.6Zm0-16-.6.6a.8.8 0 0 0 1.2 0l-.6-.6Zm.6 15.4L3 10.5 2 11.6l9.5 9.6 1.2-1.2Zm8.4-9.5L11.4 20l1.2 1.2 9.5-9.6-1.1-1.1ZM9.9 3.6l1.5 1.6L12.6 4 11 2.5 10 3.6Zm2.7 1.6L14 3.6 13 2.5 11.4 4l1.2 1.2Zm5-4.6c-1.8 0-3.4.7-4.6 1.9L14 3.6c1-.9 2.2-1.4 3.4-1.4V.6Zm4.8 6.5c0 1.2-.5 2.5-1.4 3.4l1.1 1.1A6.5 6.5 0 0 0 24 7.1h-1.6ZM24 7A6.5 6.5 0 0 0 17.5.6v1.6a4.9 4.9 0 0 1 4.9 4.9H24ZM6.5 2.2c1.2 0 2.5.5 3.4 1.4L11 2.5A6.5 6.5 0 0 0 6.5.6v1.6ZM1.6 7.1a4.9 4.9 0 0 1 4.9-4.9V.6A6.5 6.5 0 0 0 0 7.1h1.6ZM3 10.5A4.9 4.9 0 0 1 1.6 7H0c0 1.7.7 3.3 1.9 4.5L3 10.5Z"/></svg>