<svg xmlns="http://www.w3.org/2000/svg" width="20" height="24" fill="none"><path fill="#FEFEFE" d="M10 7c-1 0-1.8.3-2.5 1a3.6 3.6 0 0 0 0 5 3.5 3.5 0 0 0 5 0 3.6 3.6 0 0 0 0-5c-.7-.7-1.6-1-2.5-1Zm-2 3.5c0-.5.2-1 .5-1.5a2 2 0 0 1 3 0 2.1 2.1 0 0 1 0 3 2 2 0 0 1-3 0c-.3-.4-.6-1-.6-1.5Zm9.6 6.3-5.9 6.4a2.4 2.4 0 0 1-1.7.8 2.3 2.3 0 0 1-1.7-.8l-6-6.4A10.3 10.3 0 0 1 10 0c5.5 0 10 4.6 10 10.2 0 2.4-.8 4.7-2.4 6.6Zm-1.1-1A8.8 8.8 0 0 0 10 1.5a8.8 8.8 0 0 0-6.5 14.3l.2.3 5.7 6.1a.9.9 0 0 0 .6.3.9.9 0 0 0 .6-.3l5.7-6.1.2-.3Z"/></svg>